HIERARCHY
ROOT Hips
{
	OFFSET 0.000000 0.000000 0.000000 
	CHANNELS 6 Xposition Yposition Zposition Zrotation Yrotation Xrotation
	JOINT LeftUpLeg
	{
		OFFSET 1.363060 -1.794630 0.839290 
		CHANNELS 3 Zrotation Yrotation Xrotation
		JOINT LeftLeg
		{
			OFFSET 2.448110 -6.726130 0.000000 
			CHANNELS 3 Zrotation Yrotation Xrotation
			JOINT LeftFoot
			{
				OFFSET 2.562200 -7.039590 0.000000 
				CHANNELS 3 Zrotation Yrotation Xrotation
				JOINT LeftToeBase
				{
					OFFSET 0.157640 -0.433110 2.322550 
					CHANNELS 3 Zrotation Yrotation Xrotation
					End Site
					{
						OFFSET 0.000000 0.000000 0.000000 
					}
				}
			}
		}
	}
	JOINT RightUpLeg
	{
		OFFSET -1.305520 -1.794630 0.839290 
		CHANNELS 3 Zrotation Yrotation Xrotation
		JOINT RightLeg
		{
			OFFSET -2.542530 -6.985550 0.000000 
			CHANNELS 3 Zrotation Yrotation Xrotation
			JOINT RightFoot
			{
				OFFSET -2.568260 -7.056230 0.000000 
				CHANNELS 3 Zrotation Yrotation Xrotation
				JOINT RightToeBase
				{
					OFFSET -0.164730 -0.452590 2.363150 
					CHANNELS 3 Zrotation Yrotation Xrotation
					End Site
					{
						OFFSET 0.000000 0.000000 0.000000 
					}
				}
			}
		}
	}
	JOINT Spine
	{
		OFFSET 0.028270 2.035590 -0.193380 
		CHANNELS 3 Zrotation Yrotation Xrotation
		JOINT Spine1
		{
			OFFSET 0.056720 2.048850 -0.042750 
			CHANNELS 3 Zrotation Yrotation Xrotation
			JOINT Neck1
			{
				OFFSET -0.054170 1.746240 0.172020 
				CHANNELS 3 Zrotation Yrotation Xrotation
				JOINT Head
				{
					OFFSET 0.104070 1.761360 -0.123970 
					CHANNELS 3 Zrotation Yrotation Xrotation
					End Site
					{
						OFFSET 0.000000 0.000000 0.000000 
					}
				}
			}
			JOINT LeftArm
			{
				OFFSET 3.362410 1.200890 -0.311210 
				CHANNELS 3 Zrotation Yrotation Xrotation
				JOINT LeftForeArm
				{
					OFFSET 4.983000 -0.000000 -0.000000 
					CHANNELS 3 Zrotation Yrotation Xrotation
					JOINT LeftHand
					{
						OFFSET 3.483560 -0.000000 -0.000000 
						CHANNELS 3 Zrotation Yrotation Xrotation
						JOINT LeftHandIndex1
						{
							OFFSET 0.715260 -0.000000 -0.000000 
							CHANNELS 3 Zrotation Yrotation Xrotation
							End Site
							{
								OFFSET 0.000000 0.000000 0.000000 
							}
						}
					}
				}
			}
			JOINT RightArm
			{
				OFFSET -3.136600 1.374050 -0.404650 
				CHANNELS 3 Zrotation Yrotation Xrotation
				JOINT RightForeArm
				{
					OFFSET -5.241900 -0.000000 -0.000000 
					CHANNELS 3 Zrotation Yrotation Xrotation
					JOINT RightHand
					{
						OFFSET -3.444170 -0.000000 -0.000000 
						CHANNELS 3 Zrotation Yrotation Xrotation
						JOINT RightHandIndex1
						{
							OFFSET -0.622530 -0.000000 -0.000000 
							CHANNELS 3 Zrotation Yrotation Xrotation
							End Site
							{
								OFFSET 0.000000 0.000000 0.000000 
							}
						}
					}
				}
			}
		}
	}
}
MOTION
Frames: 15
Frame Time: 0.041667
8.055326 17.089400 -1.173802 28.375789 84.766944 43.181571 -12.368925 14.888140 -43.711889 4.697164 16.374254 45.722472 4.173784 -5.787574 13.520105 0.012200 -0.713000 -1.959400 8.535230 -2.988521 -45.048914 -8.945335 -19.285525 56.278745 2.679192 -10.200651 6.232158 -0.155400 -2.540400 7.001600 0.468992 1.098812 -1.223410 0.799856 0.128005 -5.847892 4.152787 1.746625 1.496612 -2.341000 0.464100 5.249700 -91.883440 -27.495150 33.065778 30.674937 -33.607392 -16.259633 -1.413341 0.013884 -26.649930 -7.125000 0.000000 0.000000 82.802279 29.589951 31.238417 -41.016470 43.792014 -28.734738 1.065145 0.599389 -18.655496 7.125000 0.000000 0.000000 
8.063564 17.089168 -1.154424 29.207161 84.815617 43.973389 -12.323290 14.873575 -43.632156 4.674040 16.349306 45.630459 4.117675 -5.621699 13.597906 0.027800 -1.077100 -2.961000 8.611833 -3.103120 -45.068214 -8.967560 -19.278364 56.353865 2.642778 -10.111367 6.200401 -0.145000 -2.453900 6.762000 0.470979 1.137844 -1.265733 0.755976 0.155401 -6.190565 4.283995 1.756081 1.459628 -2.247400 0.484800 5.149800 -92.185878 -26.937633 33.457820 30.612435 -33.612443 -16.231594 -1.405508 0.009897 -26.483600 -7.125000 0.000000 0.000000 82.734143 28.820218 31.600978 -41.064442 43.895560 -28.806124 1.068883 0.628987 -18.533198 7.125000 0.000000 0.000000 
8.071338 17.081742 -1.133190 30.167617 84.781769 44.910372 -12.373730 14.965577 -43.649626 4.684563 16.339106 45.629953 4.065457 -5.477803 13.561393 0.044800 -1.366200 -3.757100 8.606154 -3.079203 -45.108826 -9.011398 -19.306592 56.499770 2.615940 -10.041335 6.108322 -0.140600 -2.416600 6.658500 0.470223 1.168591 -1.283160 0.773466 0.172315 -6.352321 4.414011 1.750216 1.439565 -2.123300 0.492300 5.115700 -92.544204 -26.495030 33.725545 30.691631 -33.714079 -16.323750 -1.389805 -0.019947 -26.274658 -7.125000 0.000000 0.000000 82.644822 28.347545 31.915124 -40.985084 43.911702 -28.751465 1.053346 0.639820 -18.358381 7.125000 0.000000 0.000000 
8.075632 17.072111 -1.112536 30.967153 84.744585 45.710965 -12.409382 15.047873 -43.690051 4.690775 16.329914 45.636123 4.065394 -5.478222 13.579673 0.046400 -1.390500 -3.824000 8.577489 -2.984453 -45.150041 -9.043455 -19.345832 56.640171 2.503181 -9.796092 6.146296 -0.145200 -2.455800 6.767200 0.469645 1.162416 -1.276615 0.799479 0.166235 -6.291650 4.482019 1.687976 1.450465 -2.065100 0.464400 5.206400 -92.862933 -26.214021 33.826028 30.898793 -33.902333 -16.523166 -1.377549 -0.052896 -26.082476 -7.125000 0.000000 0.000000 82.544704 28.317883 32.250843 -40.647164 43.760769 -28.415213 1.028017 0.575021 -18.114041 7.125000 0.000000 0.000000 
8.078765 17.069210 -1.095711 30.746800 84.797140 45.519056 -12.283002 14.978361 -43.629028 4.688877 16.333849 45.629744 4.088555 -5.540785 13.682930 0.036200 -1.227600 -3.375100 8.650276 -2.938834 -45.179598 -9.065644 -19.386271 56.770794 2.383755 -9.532878 6.176436 -0.149900 -2.494800 6.875200 0.492459 1.139863 -1.193502 0.891477 0.150505 -5.870889 4.430561 1.845221 1.327070 -2.103800 0.528000 5.078100 -93.061572 -26.164658 33.820029 30.994248 -34.027208 -16.633783 -1.377202 -0.036061 -26.086716 -7.125000 0.000000 0.000000 82.418194 28.565163 32.793252 -40.208841 43.557794 -27.959550 1.024025 0.514903 -17.873647 7.125000 0.000000 0.000000 
8.087467 17.066193 -1.081671 31.657984 84.891450 46.350059 -12.137249 14.757279 -43.485462 4.690513 16.353011 45.643296 4.058315 -5.471702 13.721542 0.035300 -1.212900 -3.334800 8.714798 -3.031199 -45.169734 -9.100123 -19.384199 56.911325 2.263853 -9.252839 6.093215 -0.152300 -2.514700 6.930300 0.508597 1.064194 -1.353236 0.877952 0.156316 -6.967265 4.451502 1.901051 1.294462 -2.062500 0.569600 4.850800 -93.369889 -24.776466 34.062296 31.131525 -34.259446 -16.816920 -1.380138 -0.052993 -26.158154 -7.125000 0.000000 0.000000 82.454177 27.200744 33.586752 -40.199946 43.656917 -27.958372 1.036444 0.570658 -17.729607 7.125000 0.000000 0.000000 
8.097910 17.058651 -1.070183 34.169331 84.862277 48.803839 -12.144176 14.576427 -43.408236 4.698146 16.401661 45.691885 3.966052 -5.247593 13.649962 0.059800 -1.577800 -4.340300 8.654535 -3.151791 -45.162591 -9.147334 -19.363766 57.049356 2.157104 -9.004729 6.017846 -0.148500 -2.483300 6.843300 0.534826 0.963964 -1.430118 1.073464 0.125168 -7.530497 4.587034 1.884073 1.237527 -1.919800 0.573300 4.651600 -93.776280 -23.830105 34.193161 31.263723 -34.442493 -16.971452 -1.392997 -0.080377 -26.134767 -7.125000 0.000000 0.000000 82.343962 26.155876 34.386484 -40.370710 43.851271 -28.151762 1.042370 0.645219 -17.722491 7.125000 0.000000 0.000000 
8.103944 17.055170 -1.061365 34.884674 84.804776 49.516173 -12.160142 14.540230 -43.392223 4.712517 16.420640 45.734168 3.919364 -5.135150 13.616265 0.069100 -1.696200 -4.666900 8.619363 -3.149007 -45.198952 -9.168430 -19.373749 57.150536 2.011839 -8.681938 6.018144 -0.144500 -2.450100 6.751400 0.533360 1.000258 -1.446675 1.086842 0.143351 -7.636517 4.709243 1.732731 1.190967 -1.817600 0.504800 4.609900 -94.114347 -23.398718 34.434097 31.423676 -34.594645 -17.120992 -1.424590 -0.088818 -26.175895 -7.125000 0.000000 0.000000 82.127778 25.672358 34.895704 -40.443117 43.942247 -28.217297 1.059933 0.686930 -17.807938 7.125000 0.000000 0.000000 
8.107889 17.052617 -1.053706 34.579516 84.812425 49.210061 -12.114729 14.521785 -43.386345 4.734520 16.432366 45.792554 3.931130 -5.175614 13.608409 0.062300 -1.610300 -4.429900 8.650146 -3.118505 -45.233365 -9.177511 -19.391329 57.241066 1.843268 -8.308592 6.037424 -0.142900 -2.435800 6.711700 0.560503 1.003705 -1.480499 1.204139 0.160993 -7.888308 4.693943 1.785356 1.105358 -1.819800 0.525300 4.494700 -94.484190 -22.761350 34.514704 31.699899 -34.859267 -17.390004 -1.443097 -0.125660 -26.338205 -7.125000 0.000000 0.000000 81.920867 25.112783 35.577672 -40.460626 44.012540 -28.241732 1.058247 0.739875 -17.869779 7.125000 0.000000 0.000000 
8.114503 17.047395 -1.046512 35.406983 84.816038 50.004758 -12.119749 14.495413 -43.381794 4.763469 16.464336 45.897178 3.969835 -5.292084 13.501962 0.074700 -1.762800 -4.850500 8.632626 -3.130549 -45.213474 -9.202619 -19.398854 57.344574 1.736633 -8.066752 5.985712 -0.139000 -2.402800 6.620300 0.577260 0.973090 -1.490084 1.254244 0.155301 -7.993708 4.614878 1.910400 1.057876 -1.890200 0.579400 4.439200 -94.743258 -22.183814 34.722900 32.093789 -35.206634 -17.755245 -1.479200 -0.195217 -26.619851 -7.125000 0.000000 0.000000 81.847838 24.578497 36.170131 -40.654409 44.190910 -28.490041 1.014500 0.796974 -17.843031 7.125000 0.000000 0.000000 
8.121929 17.039505 -1.042335 35.424263 84.832643 50.012583 -12.105963 14.490814 -43.409834 4.810489 16.498561 46.032294 3.983430 -5.348163 13.407395 0.088000 -1.913600 -5.266900 8.639430 -3.121952 -45.222958 -9.229299 -19.421005 57.467893 1.608763 -7.779436 5.960693 -0.137100 -2.386600 6.575400 0.558349 1.038577 -1.467856 1.081870 0.175222 -7.791728 4.597518 1.823055 1.148826 -1.944800 0.539600 4.607000 -94.892405 -21.928200 35.149305 32.618487 -35.606941 -18.214236 -1.532542 -0.283306 -27.020946 -7.125000 0.000000 0.000000 81.802346 24.297070 36.422981 -40.850198 44.346887 -28.732518 0.976634 0.821961 -17.811465 7.125000 0.000000 0.000000 
8.127731 17.026509 -1.041175 34.702288 84.898338 49.311088 -12.040082 14.470130 -43.466429 4.872870 16.540428 46.183486 3.947654 -5.278374 13.327127 0.097000 -2.009000 -5.530400 8.703184 -3.120001 -45.283141 -9.261687 -19.452737 57.616755 1.484741 -7.497177 5.927129 -0.134200 -2.361400 6.505400 0.561245 1.079322 -1.407923 1.048257 0.180575 -7.390577 4.618229 1.752061 1.128129 -1.950300 0.501700 4.654500 -95.104821 -21.852997 35.329556 33.179377 -36.023910 -18.715207 -1.567097 -0.358172 -27.399630 -7.125000 0.000000 0.000000 81.642136 24.256238 36.797405 -40.920193 44.425944 -28.805207 0.977723 0.814250 -17.943016 7.125000 0.000000 0.000000 
8.134809 17.014094 -1.038390 34.450145 84.959330 49.112857 -11.999479 14.462592 -43.532227 4.930974 16.584350 46.322031 3.902066 -5.177711 13.205229 0.111400 -2.151600 -5.924800 8.744887 -3.099732 -45.343150 -9.297994 -19.490493 57.763997 1.412770 -7.326429 5.814255 -0.131500 -2.337600 6.439700 0.560004 1.076104 -1.286241 1.031909 0.150428 -6.589582 4.632789 1.733611 1.032994 -1.949600 0.480200 4.710100 -95.242312 -22.120245 35.349142 33.798693 -36.461208 -19.269047 -1.593152 -0.409228 -27.700038 -7.125000 0.000000 0.000000 81.530904 24.603399 37.176672 -41.058216 44.523067 -28.958780 0.956587 0.845582 -18.234471 7.125000 0.000000 0.000000 
8.142932 17.008872 -1.035721 34.804521 84.895346 49.483718 -12.075061 14.536162 -43.594921 4.975926 16.609261 46.453225 3.904516 -5.204381 13.109949 0.112400 -2.161800 -5.952900 8.662490 -2.987576 -45.348551 -9.330968 -19.527231 57.871312 1.382559 -7.260386 5.826010 -0.126800 -2.295000 6.321700 0.526652 1.123384 -1.270873 0.899277 0.170313 -6.409551 4.680311 1.587147 1.046977 -1.936700 0.412000 4.840000 -95.401446 -21.769754 35.594875 34.681684 -37.091339 -20.076954 -1.635877 -0.505420 -28.003226 -7.125000 0.000000 0.000000 81.534865 24.380888 37.501545 -41.233233 44.651351 -29.159283 0.929033 0.886789 -18.387068 7.125000 0.000000 0.000000 
8.152562 17.004811 -1.036301 35.732767 84.734817 50.352496 -12.241091 14.643360 -43.670846 5.017489 16.628571 46.607855 3.964627 -5.390543 12.996662 0.098500 -2.024400 -5.573000 8.501181 -2.880835 -45.337385 -9.371176 -19.539635 57.975622 1.339703 -7.168524 5.878628 -0.122000 -2.251300 6.200700 0.549412 1.080726 -1.462934 1.135760 0.216299 -7.677200 4.681049 1.572096 1.011936 -1.911300 0.415000 4.540900 -95.972759 -19.767398 35.788716 35.821879 -37.978982 -21.177606 -1.716009 -0.632762 -28.272711 -7.125000 0.000000 0.000000 81.447120 22.629453 38.512623 -41.514141 44.927706 -29.418992 0.985467 0.870234 -18.434976 7.125000 0.000000 0.000000 
